<svg id="Capa_1" enable-background="new 0 0 512.034 512.034" height="512" viewBox="0 0 512.034 512.034" width="512" xmlns="http://www.w3.org/2000/svg"><g><path d="m507.623 134.41c-13.593-13.593-116.623-116.623-130-130-5.857-5.857-15.355-5.857-21.213 0s-5.858 15.355 0 21.213l21.28 21.28-152.729 124.96c-14.327-12.781-35.455-15.116-52.281-5.501l-92.105 52.632c-6.208 3.547-9.049 10.983-6.789 17.767 13.977 41.931 36.88 80.94 66.613 113.661l-135.988 135.988c-9.478 9.477-2.635 25.606 10.606 25.606 3.839 0 7.678-1.465 10.606-4.394l135.989-135.989c32.721 29.733 71.73 52.636 113.661 66.613 6.811 2.27 14.234-.606 17.767-6.788l52.631-92.105c9.616-16.827 7.281-37.954-5.501-52.281l124.961-152.729 21.28 21.28c2.929 2.929 6.768 4.394 10.606 4.394 13.243 0 20.084-16.13 10.606-25.607zm-187.998 190.059-46.397 81.195c-76.468-29.209-137.65-90.391-166.858-166.858l81.194-46.397c5.856-3.347 13.279-2.352 18.049 2.417 16.193 16.193 94.357 94.358 111.595 111.597 4.77 4.767 5.764 12.189 2.417 18.046zm124.186-211.445-124.908 152.665-72.56-72.56 152.666-124.907z"/></g></svg>