<svg width="512" height="512" viewBox="0 0 512 512" fill="none" xmlns="http://www.w3.org/2000/svg">
<path d="M507.589 134.401C493.997 120.809 390.974 17.7858 377.598 4.4097C371.741 -1.44691 362.244 -1.44691 356.386 4.4097C350.529 10.2663 350.529 19.7637 356.386 25.6213L377.665 46.8999L224.946 171.852C210.62 159.071 189.493 156.737 172.669 166.351L80.5696 218.979C74.3621 222.526 71.5213 229.962 73.7811 236.745C87.7572 278.674 110.659 317.68 140.39 350.399L4.41071 486.378C-5.06666 495.854 1.77588 511.982 15.016 511.982C18.8547 511.982 22.6935 510.517 25.6213 507.588L161.601 371.608C194.32 401.339 233.327 424.241 275.255 438.217C282.065 440.487 289.488 437.611 293.021 431.429L345.648 339.33C355.263 322.505 352.929 301.379 340.147 287.053L465.1 134.334L486.379 155.613C489.308 158.541 493.146 160.006 496.984 160.006C510.226 160.006 517.067 143.877 507.589 134.401V134.401ZM319.604 324.447L273.21 405.637C196.747 376.43 135.569 315.252 106.363 238.79L187.552 192.396C193.407 189.049 200.83 190.044 205.599 194.813C221.791 211.005 299.95 289.165 317.187 306.403C321.957 311.169 322.951 318.591 319.604 324.447ZM443.782 113.016L318.882 265.671L246.327 193.116L398.983 68.2175L443.782 113.016Z" fill="#00FF00"/>
</svg>
