<svg width="94" height="94" viewBox="0 0 94 94" fill="none" xmlns="http://www.w3.org/2000/svg">
<g clip-path="url(#clip0)">
<path d="M87.952 41.17L51.566 41.28V5.61C51.566 2.502 49.064 0 45.956 0C42.849 0 40.346 2.502 40.346 5.61L40.456 41.171H5.61C2.502 41.171 0 43.673 0 46.781C0 49.888 2.502 52.39 5.61 52.39H40.401V87.952C40.401 91.058 42.903 93.562 46.011 93.562C49.119 93.562 51.621 91.058 51.621 87.952V52.391H87.952C91.06 52.391 93.562 49.887 93.562 46.781C93.562 43.672 91.032 41.17 87.952 41.17Z" fill="white"/>
</g>
<defs>
<clipPath id="clip0">
<rect width="93.562" height="93.562" fill="white"/>
</clipPath>
</defs>
</svg>
